<svg width="135" height="41" viewBox="0 0 135 41" fill="none" xmlns="http://www.w3.org/2000/svg">
<path d="M1.344 41L17.472 1.8H21.952L37.968 41H31.024L18.48 9.248H20.832L8.176 41H1.344ZM9.296 33.44V27.84H30.072V33.44H9.296ZM43.1388 41V1.8H49.5788V41H43.1388Z" fill="#9D4EDD"/>
<path d="M65.088 37.44L77.312 20.16H81.632L69.408 37.44H65.088ZM65.088 40V37.44L68.256 36.64H81.376V40H65.088ZM65.824 20.96V17.6H81.632V20.16L78.432 20.96H65.824ZM90.9295 40.32C89.4362 40.32 88.0815 39.968 86.8655 39.264C85.6495 38.5387 84.6788 37.568 83.9535 36.352C83.2495 35.136 82.8975 33.7813 82.8975 32.288C82.8975 30.7947 83.2495 29.4507 83.9535 28.256C84.6788 27.0613 85.6495 26.112 86.8655 25.408C88.0815 24.6827 89.4362 24.32 90.9295 24.32C92.4442 24.32 93.8095 24.672 95.0255 25.376C96.2415 26.08 97.2015 27.04 97.9055 28.256C98.6308 29.4507 98.9935 30.7947 98.9935 32.288C98.9935 33.7813 98.6308 35.136 97.9055 36.352C97.2015 37.568 96.2415 38.5387 95.0255 39.264C93.8095 39.968 92.4442 40.32 90.9295 40.32ZM90.9295 36.928C91.8042 36.928 92.5722 36.736 93.2335 36.352C93.9162 35.9467 94.4388 35.392 94.8015 34.688C95.1855 33.984 95.3775 33.184 95.3775 32.288C95.3775 31.392 95.1855 30.6027 94.8015 29.92C94.4175 29.2373 93.8948 28.704 93.2335 28.32C92.5722 27.9147 91.8042 27.712 90.9295 27.712C90.0762 27.712 89.3082 27.9147 88.6255 28.32C87.9642 28.704 87.4415 29.2373 87.0575 29.92C86.6948 30.6027 86.5135 31.392 86.5135 32.288C86.5135 33.184 86.6948 33.984 87.0575 34.688C87.4415 35.392 87.9642 35.9467 88.6255 36.352C89.3082 36.736 90.0762 36.928 90.9295 36.928ZM112.449 40V31.136C112.449 30.112 112.118 29.2693 111.457 28.608C110.817 27.9467 109.985 27.616 108.961 27.616C108.278 27.616 107.67 27.7653 107.137 28.064C106.603 28.3627 106.187 28.7787 105.889 29.312C105.59 29.8453 105.441 30.4533 105.441 31.136L104.065 30.368C104.065 29.1947 104.321 28.16 104.833 27.264C105.345 26.3467 106.049 25.632 106.945 25.12C107.862 24.5867 108.886 24.32 110.017 24.32C111.169 24.32 112.193 24.6187 113.089 25.216C113.985 25.792 114.689 26.5493 115.201 27.488C115.713 28.4053 115.969 29.3653 115.969 30.368V40H112.449ZM101.921 40V24.64H105.441V40H101.921ZM126.682 40.32C125.146 40.32 123.759 39.9787 122.522 39.296C121.306 38.592 120.335 37.632 119.61 36.416C118.906 35.2 118.554 33.8347 118.554 32.32C118.554 30.8053 118.906 29.4507 119.61 28.256C120.314 27.04 121.263 26.08 122.458 25.376C123.674 24.672 125.018 24.32 126.49 24.32C127.919 24.32 129.178 24.6507 130.266 25.312C131.375 25.9733 132.239 26.88 132.858 28.032C133.498 29.184 133.818 30.496 133.818 31.968C133.818 32.224 133.796 32.4907 133.754 32.768C133.732 33.024 133.69 33.312 133.626 33.632H121.018V30.752H131.802L130.49 31.904C130.447 30.9653 130.266 30.176 129.946 29.536C129.626 28.896 129.167 28.4053 128.57 28.064C127.994 27.7227 127.279 27.552 126.426 27.552C125.53 27.552 124.751 27.744 124.09 28.128C123.428 28.512 122.916 29.056 122.554 29.76C122.191 30.4427 122.01 31.264 122.01 32.224C122.01 33.184 122.202 34.0267 122.586 34.752C122.97 35.4773 123.514 36.0427 124.218 36.448C124.922 36.832 125.732 37.024 126.65 37.024C127.439 37.024 128.164 36.8853 128.826 36.608C129.508 36.3307 130.084 35.9253 130.554 35.392L132.794 37.664C132.047 38.5387 131.14 39.2 130.074 39.648C129.007 40.096 127.876 40.32 126.682 40.32Z" fill="white"/>
</svg>
